<?xml version="1.0" encoding="utf-8"?>
<!-- Generator: Adobe Illustrator 17.0.0, SVG Export Plug-In . SVG Version: 6.00 Build 0)  -->
<!DOCTYPE svg PUBLIC "-//W3C//DTD SVG 1.1//EN" "http://www.w3.org/Graphics/SVG/1.1/DTD/svg11.dtd">
<svg version="1.1" id="Layer_1" xmlns="http://www.w3.org/2000/svg" xmlns:xlink="http://www.w3.org/1999/xlink" x="0px" y="0px"
	 width="235.667px" height="235.667px" viewBox="0 0 235.667 235.667" enable-background="new 0 0 235.667 235.667"
	 xml:space="preserve">
<path fill="#FFFFFF" d="M-38.738,214.766c0.114,0-0.113-0.299-0.113-0.401c-0.115-0.097-0.342-0.199-0.568-0.199
	c0,0.102-0.227,0.199-0.34,0.199h-0.343C-39.989,214.667-39.08,214.766-38.738,214.766z"/>
<g>
	<path fill="#6D6E71" d="M102.704,225.512c-51.648,0-93.666-42.019-93.666-93.666V10.333h125.782
		c51.648,0,93.667,42.019,93.667,93.666v121.513H102.704z"/>
</g>
<g>
	<linearGradient id="SVGID_1_" gradientUnits="userSpaceOnUse" x1="118.7616" y1="225.5124" x2="118.7616" y2="10.3332">
		<stop  offset="0" style="stop-color:#D7B519"/>
		<stop  offset="0.618" style="stop-color:#DAC33B"/>
		<stop  offset="0.6292" style="stop-color:#DAC43C"/>
		<stop  offset="0.9831" style="stop-color:#D9C039"/>
	</linearGradient>
	<path fill="url(#SVGID_1_)" d="M102.704,225.512c-51.648,0-93.666-42.019-93.666-93.666V10.333h125.782
		c51.648,0,93.667,42.019,93.667,93.666v121.513H102.704z"/>
	<linearGradient id="SVGID_2_" gradientUnits="userSpaceOnUse" x1="118.7616" y1="225.5124" x2="118.7616" y2="10.3332">
		<stop  offset="0" style="stop-color:#CAB328"/>
		<stop  offset="0.618" style="stop-color:#B79222"/>
		<stop  offset="0.6292" style="stop-color:#C4AD28"/>
		<stop  offset="0.9831" style="stop-color:#FFFFFF;stop-opacity:0.23"/>
	</linearGradient>
	<path fill="url(#SVGID_2_)" d="M102.704,225.512c-51.648,0-93.666-42.019-93.666-93.666V10.333h125.782
		c51.648,0,93.667,42.019,93.667,93.666v121.513H102.704z"/>
	<linearGradient id="SVGID_3_" gradientUnits="userSpaceOnUse" x1="118.7616" y1="10.3332" x2="118.7616" y2="225.5124">
		<stop  offset="0" style="stop-color:#FFFFFF;stop-opacity:0.77"/>
		<stop  offset="0.2033" style="stop-color:#FFFFFF;stop-opacity:0.65"/>
		<stop  offset="0.3448" style="stop-color:#FFFFFF;stop-opacity:0.65"/>
		<stop  offset="0.3462" style="stop-color:#FFFFFF;stop-opacity:0.65"/>
		<stop  offset="0.511" style="stop-color:#FFFFFF;stop-opacity:0"/>
		<stop  offset="0.5136" style="stop-color:#FEFDFA;stop-opacity:8.654880e-004"/>
		<stop  offset="0.5359" style="stop-color:#F6F0D0;stop-opacity:0.0081"/>
		<stop  offset="0.5607" style="stop-color:#EFE4AB;stop-opacity:0.0163"/>
		<stop  offset="0.5879" style="stop-color:#E9D98B;stop-opacity:0.0252"/>
		<stop  offset="0.618" style="stop-color:#E4D06F;stop-opacity:0.035"/>
		<stop  offset="0.6519" style="stop-color:#E0C959;stop-opacity:0.0461"/>
		<stop  offset="0.6915" style="stop-color:#DDC448;stop-opacity:0.0591"/>
		<stop  offset="0.7405" style="stop-color:#DBC03D;stop-opacity:0.0751"/>
		<stop  offset="0.8092" style="stop-color:#D9BE36;stop-opacity:0.0976"/>
		<stop  offset="1" style="stop-color:#D9BD34;stop-opacity:0.16"/>
	</linearGradient>
	<path opacity="0.7" fill="url(#SVGID_3_)" d="M102.704,225.512c-51.648,0-93.666-42.019-93.666-93.666V10.333h125.782
		c51.648,0,93.667,42.019,93.667,93.666v121.513H102.704z"/>
	<g opacity="0.49">
		<path fill="#FFFFFF" d="M102.704,223.078c-45.889-0.342-85.165-34.587-91.636-80.049c-1.391-9.772-0.818-19.95-0.818-29.795
			c0-15.342,0-30.685,0-46.027c0-18.558,0-37.115,0-55.673c-0.004,0.412-0.008,0.823-0.012,1.235c22.925,0,45.851,0,68.776,0
			c14.368,0,28.736,0,43.104,0c10.243,0,20.347-0.189,30.485,1.716c42.47,7.981,74.672,47.059,74.672,90.2
			c0,25.568,0,51.135,0,76.703c0,14.308,0,28.617,0,42.925c0.004-0.412,0.008-0.823,0.012-1.235
			C185.758,223.078,144.231,223.078,102.704,223.078c-0.019,0-0.019,2.469,0,2.469c41.527,0,83.055,0,124.582,0
			c0.015,0,0.012-1.17,0.012-1.235c0-23.198,0-46.396,0-69.594c0-13.78,0-27.56,0-41.34c0-9.547,0.048-18.945-1.728-28.396
			c-8.075-42.967-47.486-74.683-90.92-74.683c-24.19,0-48.381,0-72.571,0c-17.281,0-34.561,0-51.842,0
			c-0.015,0-0.012,1.17-0.012,1.235c0,23.198,0,46.396,0,69.594c0,13.78,0,27.56,0,41.34c0,9.547-0.048,18.945,1.728,28.396
			c8.097,43.086,47.356,74.36,90.75,74.683C102.716,225.547,102.729,223.078,102.704,223.078z"/>
	</g>
	<path fill="none" stroke="#DAC43D" stroke-width="2" stroke-miterlimit="1" d="M102.704,225.512
		c-51.648,0-93.666-42.019-93.666-93.666V10.333h125.782c51.648,0,93.667,42.019,93.667,93.666v121.513H102.704z"/>
	<g opacity="0.58">
		<path fill="#DAC43C" d="M102.704,225.307c-46.016-0.34-85.55-34.348-92.649-79.844c-1.599-10.246-1.015-20.964-1.015-31.313
			c0-15.183,0-30.367,0-45.55c0-14.688,0-29.375,0-44.063c0-4.06,0-8.12,0-12.18c0-2.039-0.416-1.819,1.455-1.819
			c26.235,0,52.469,0,78.704,0c12.884,0,25.769,0,38.653,0c12.921,0,25.439,0.99,37.806,5.215
			c20.851,7.123,38.485,22.049,49.799,40.835c9.217,15.303,13.027,32.64,13.027,50.362c0,27.515,0,55.031,0,82.546
			c0,11.131,0,22.261,0,33.392c0,1.929,0.607,2.418-1.017,2.418c-3.441,0-6.883,0-10.324,0
			C178.997,225.307,140.85,225.307,102.704,225.307c-0.003,0-0.003,0.412,0,0.412c41.927,0,83.855,0,125.782,0
			c0.002,0,0.002-0.195,0.002-0.206c0-23.066,0-46.132,0-69.198c0-13.962,0-27.924,0-41.886c0-8.662,0.112-17.204-1.23-25.808
			c-6.975-44.7-47.462-78.493-92.449-78.493c-23.12,0-46.239,0-69.359,0c-18.804,0-37.608,0-56.412,0
			c-0.002,0-0.002,0.195-0.002,0.206c0,23.066,0,46.132,0,69.198c0,13.962,0,27.924,0,41.886c0,8.662-0.112,17.204,1.23,25.808
			c7.012,44.938,47.431,78.161,92.438,78.493C102.706,225.718,102.708,225.307,102.704,225.307z"/>
	</g>
</g>
<g>
	<linearGradient id="SVGID_4_" gradientUnits="userSpaceOnUse" x1="14.0371" y1="120.9229" x2="229.4858" y2="120.9229">
		<stop  offset="0" style="stop-color:#DE5DB6"/>
		<stop  offset="0.618" style="stop-color:#B749D5"/>
		<stop  offset="1" style="stop-color:#EC008C"/>
	</linearGradient>
	<path fill="url(#SVGID_4_)" d="M229.486,226.512H105.704c-50.417,0-91.667-41.25-91.667-91.667V15.333h123.782
		c50.417,0,91.667,41.25,91.667,91.667V226.512z"/>
	
		<radialGradient id="SVGID_5_" cx="153.0265" cy="191.8752" r="161.4935" gradientTransform="matrix(1 0 0 0.4883 0 98.1802)" gradientUnits="userSpaceOnUse">
		<stop  offset="0.3667" style="stop-color:#FFFFFF;stop-opacity:0"/>
		<stop  offset="0.9105" style="stop-color:#FFFFFF;stop-opacity:0.7041"/>
		<stop  offset="1" style="stop-color:#FFFFFF;stop-opacity:0.82"/>
	</radialGradient>
	<path opacity="0.58" fill="url(#SVGID_5_)" d="M229.486,226.512H105.704c-50.417,0-91.667-41.25-91.667-91.667V15.333h123.782
		c50.417,0,91.667,41.25,91.667,91.667V226.512z"/>
	<g opacity="0.49">
		<path fill="#FFFFFF" d="M105.704,225.062c-46.324-0.355-85.473-35.967-90.082-82.091c-0.964-9.646-0.382-19.622-0.382-29.296
			c0-15.643,0-31.286,0-46.928c0-13.755,0-27.51,0-41.264c0-2.892,0-5.783,0-8.675c0-0.09,3.557-0.025,4.423-0.025
			c28.295,0,56.59,0,84.885,0c10.507,0,21.014,0,31.522,0c17.515,0,34.258,4.362,49.256,13.504
			c18.889,11.513,32.792,30.15,39.228,51.215c3.748,12.268,3.729,24.775,3.729,37.422c0,29.67,0,59.341,0,89.011
			c0,4.664,0,9.328,0,13.993c0,1.721,0.599,3.135-0.673,3.135c-9.395,0-18.791,0-28.186,0
			C168.184,225.062,136.944,225.062,105.704,225.062c-0.004,0-0.004,0.5,0,0.5c40.861,0,81.721,0,122.582,0
			c0.003,0,0.003-0.237,0.003-0.25c0-23.356,0-46.712,0-70.068c0-13.461,0-26.922,0-40.383c0-10.133-0.27-19.998-2.669-29.957
			c-9.769-40.555-47.639-68.621-88.847-68.621c-26.001,0-52.001,0-78.002,0c-14.511,0-29.022,0-43.533,0
			c-0.003,0-0.003,0.237-0.003,0.25c0,23.356,0,46.712,0,70.068c0,13.461,0,26.922,0,40.383c0,10.133,0.27,19.998,2.669,29.957
			c9.652,40.068,46.99,68.308,87.8,68.621C105.706,225.562,105.709,225.062,105.704,225.062z"/>
	</g>
	<path fill="none" stroke="#B04A68" stroke-width="0.25" stroke-miterlimit="1" d="M229.486,226.512H105.704
		c-50.417,0-91.667-41.25-91.667-91.667V15.333h123.782c50.417,0,91.667,41.25,91.667,91.667V226.512z"/>
	<g opacity="0.58">
		<path fill="#2D092C" d="M229.486,225.887c-22.955,0-45.91,0-68.866,0c-14.267,0-28.534,0-42.801,0
			c-10.563,0-20.93,0.123-31.363-2.047c-42.105-8.757-72.413-47.672-72.413-90.279c0-26.336,0-52.671,0-79.007
			c0-11.836,0-23.672,0-35.507c0-1.062,0-2.124,0-3.186c0-0.908-0.253,0.097,0.507,0.097c3.073,0,6.145,0,9.218,0
			c29.603,0,59.206,0,88.81,0c8.357,0,16.715,0,25.072,0c20.977,0,41.175,7.292,57.561,20.322
			c17.475,13.897,29.131,34.216,33.002,56.121c1.84,10.411,1.267,21.263,1.267,31.801c0,34.103,0,68.207,0,102.31
			c0,0.707,0.012,0.707,0.012,0c0-23.225,0-46.45,0-69.675c0-13.662,0-27.323,0-40.985c0-9.685-0.063-19.156-2.053-28.725
			c-8.734-41.996-47.59-72.419-90.133-72.419c-25.083,0-50.165,0-75.248,0c-16.007,0-32.014,0-48.021,0
			c-0.007,0-0.006,0.593-0.006,0.625c0,23.225,0,46.45,0,69.675c0,13.662,0,27.323,0,40.985c0,9.685,0.063,19.156,2.053,28.725
			c8.734,41.996,47.59,72.42,90.133,72.42c25.083,0,50.165,0,75.248,0c16.007,0,32.014,0,48.021,0
			C229.495,227.137,229.495,225.887,229.486,225.887z"/>
	</g>
</g>
<g>
	
		<linearGradient id="SVGID_6_" gradientUnits="userSpaceOnUse" x1="97.1608" y1="167.9349" x2="97.1608" y2="52.9349" gradientTransform="matrix(0.9943 0.1068 -0.1068 0.9943 15.0604 -17.2568)">
		<stop  offset="0" style="stop-color:#D7B519"/>
		<stop  offset="0.618" style="stop-color:#DAC33B"/>
		<stop  offset="0.6292" style="stop-color:#DAC43C"/>
		<stop  offset="0.9831" style="stop-color:#D9C039"/>
	</linearGradient>
	<polygon fill="url(#SVGID_6_)" points="102.043,82.71 163.184,51.892 120.085,105.094 150.902,166.235 97.701,123.136 
		36.56,153.953 79.659,100.752 48.841,39.611 	"/>
	
		<linearGradient id="SVGID_7_" gradientUnits="userSpaceOnUse" x1="97.1608" y1="167.9349" x2="97.1608" y2="52.9349" gradientTransform="matrix(0.9943 0.1068 -0.1068 0.9943 15.0604 -17.2568)">
		<stop  offset="0" style="stop-color:#CAB328"/>
		<stop  offset="0.618" style="stop-color:#B79222"/>
		<stop  offset="0.6292" style="stop-color:#C4AD28"/>
		<stop  offset="0.9831" style="stop-color:#FFFFFF;stop-opacity:0.23"/>
	</linearGradient>
	<polygon fill="url(#SVGID_7_)" points="102.043,82.71 163.184,51.892 120.085,105.094 150.902,166.235 97.701,123.136 
		36.56,153.953 79.659,100.752 48.841,39.611 	"/>
	
		<linearGradient id="SVGID_8_" gradientUnits="userSpaceOnUse" x1="97.1608" y1="52.9349" x2="97.1608" y2="167.9349" gradientTransform="matrix(0.9943 0.1068 -0.1068 0.9943 15.0604 -17.2568)">
		<stop  offset="0" style="stop-color:#FFFFFF;stop-opacity:0.77"/>
		<stop  offset="0.2033" style="stop-color:#FFFFFF;stop-opacity:0.65"/>
		<stop  offset="0.3448" style="stop-color:#FFFFFF;stop-opacity:0.65"/>
		<stop  offset="0.3462" style="stop-color:#FFFFFF;stop-opacity:0.65"/>
		<stop  offset="0.511" style="stop-color:#FFFFFF;stop-opacity:0"/>
		<stop  offset="0.5136" style="stop-color:#FEFDFA;stop-opacity:8.654880e-004"/>
		<stop  offset="0.5359" style="stop-color:#F6F0D0;stop-opacity:0.0081"/>
		<stop  offset="0.5607" style="stop-color:#EFE4AB;stop-opacity:0.0163"/>
		<stop  offset="0.5879" style="stop-color:#E9D98B;stop-opacity:0.0252"/>
		<stop  offset="0.618" style="stop-color:#E4D06F;stop-opacity:0.035"/>
		<stop  offset="0.6519" style="stop-color:#E0C959;stop-opacity:0.0461"/>
		<stop  offset="0.6915" style="stop-color:#DDC448;stop-opacity:0.0591"/>
		<stop  offset="0.7405" style="stop-color:#DBC03D;stop-opacity:0.0751"/>
		<stop  offset="0.8092" style="stop-color:#D9BE36;stop-opacity:0.0976"/>
		<stop  offset="1" style="stop-color:#D9BD34;stop-opacity:0.16"/>
	</linearGradient>
	<polygon opacity="0.7" fill="url(#SVGID_8_)" points="102.043,82.71 163.184,51.892 120.085,105.094 150.902,166.235 
		97.701,123.136 36.56,153.953 79.659,100.752 48.841,39.611 	"/>
	<g opacity="0.49">
		<path fill="#FFFFFF" d="M97.853,120.48c-18.948,9.55-37.896,19.101-56.843,28.651c0,0.823,0,1.646,0,2.469
			c13.356-16.487,26.713-32.975,40.069-49.462c0.187-0.231,0.141-2.189,0-2.469c-9.55-18.948-19.101-37.896-28.651-56.843
			c0,0.823,0,1.646,0,2.469c16.487,13.356,32.975,26.713,49.462,40.069c0.538,0.436,8.194-4.13,8.882-4.477
			c6.513-3.283,13.027-6.566,19.54-9.849c9.474-4.775,18.948-9.55,28.422-14.326c0-0.823,0-1.646,0-2.469
			c-13.357,16.487-26.713,32.975-40.07,49.462c-0.187,0.231-0.141,2.189,0,2.469c9.55,18.948,19.101,37.896,28.651,56.844
			c0-0.823,0-1.646,0-2.469C130.828,147.194,114.34,133.837,97.853,120.48c0.391,0.317-0.414,2.134,0,2.469
			c16.487,13.357,32.975,26.713,49.462,40.07c-0.365-0.296,0.239-1.995,0-2.469c-9.55-18.948-19.101-37.896-28.651-56.844
			c0,0.823,0,1.646,0,2.469c13.357-16.487,26.713-32.975,40.07-49.462c0.278-0.343-0.326-2.305,0-2.469
			c-18.948,9.55-37.896,19.101-56.844,28.651c-0.619,0.312-7.13-5.776-7.728-6.261c-5.668-4.591-11.335-9.183-17.003-13.774
			c-8.244-6.678-16.487-13.356-24.731-20.035c0.365,0.296-0.239,1.995,0,2.469c9.55,18.948,19.101,37.896,28.651,56.843
			c0-0.823,0-1.646,0-2.469c-13.356,16.487-26.713,32.975-40.069,49.462c-0.278,0.343,0.326,2.305,0,2.469
			c18.948-9.55,37.896-19.101,56.843-28.651C98.199,122.775,97.537,120.64,97.853,120.48z"/>
	</g>
	<polygon fill="none" stroke="#DAC43D" stroke-width="2" stroke-miterlimit="1" points="102.043,82.71 163.184,51.892 
		120.085,105.094 150.902,166.235 97.701,123.136 36.56,153.953 79.659,100.752 48.841,39.611 	"/>
	<g opacity="0.58">
		<path fill="#DAC43C" d="M102.043,82.916c20.329-10.247,40.659-20.494,60.988-30.74c0.235-0.118,0.291-0.659-0.037-0.254
			c-0.317,0.391-0.633,0.782-0.95,1.173c-1.449,1.789-2.898,3.578-4.348,5.367c-4.623,5.707-9.246,11.413-13.869,17.12
			c-7.816,9.648-15.632,19.296-23.448,28.944c-0.098,0.121-0.197,0.243-0.295,0.364c-0.031,0.039-0.024,0.365,0,0.412
			c10.247,20.329,20.494,40.659,30.74,60.988c-0.824-1.635-4.796-4.206-6.697-5.746c-5.707-4.623-11.413-9.246-17.12-13.869
			c-9.648-7.816-19.296-15.632-28.944-23.448c-1.027-0.832-5.351,2.219-6.384,2.74c-6.264,3.157-12.529,6.315-18.793,9.472
			c-11.759,5.927-23.519,11.854-35.278,17.781c-0.646,0.326-1.244,1.181-0.754,0.576c1.065-1.314,2.129-2.628,3.194-3.943
			c4.258-5.256,8.516-10.512,12.774-15.768c8.565-10.573,17.131-21.146,25.696-31.72c0.38-0.469,0.76-0.938,1.14-1.407
			c0.031-0.039,0.024-0.365,0-0.412c-10.247-20.329-20.494-40.659-30.74-60.988c0.824,1.635,4.796,4.206,6.697,5.746
			c5.707,4.623,11.413,9.246,17.12,13.869c9.648,7.816,19.296,15.632,28.944,23.448C101.8,82.719,101.921,82.817,102.043,82.916
			c-0.065-0.053,0.069-0.356,0-0.412C84.309,68.138,66.575,53.771,48.841,39.405c0.061,0.049-0.04,0.332,0,0.412
			c10.247,20.329,20.494,40.659,30.74,60.988c-0.117-0.231-0.426,0.362-1.063,1.148c-1.449,1.789-2.898,3.578-4.348,5.367
			c-4.623,5.707-9.246,11.413-13.869,17.12c-7.816,9.648-15.632,19.296-23.448,28.944c-0.098,0.121-0.197,0.243-0.295,0.364
			c-0.046,0.057,0.054,0.384,0,0.412c20.329-10.247,40.659-20.494,60.988-30.74c0.769-0.387,5.742,4.451,6.397,4.982
			c5.626,4.558,11.252,9.116,16.879,13.673c9.853,7.982,19.705,15.963,29.558,23.945c0.174,0.141,0.347,0.281,0.521,0.422
			c-0.061-0.049,0.04-0.332,0-0.412c-10.247-20.329-20.494-40.659-30.74-60.988c0.117,0.231,0.426-0.362,1.063-1.148
			c1.449-1.789,2.898-3.578,4.348-5.367c4.623-5.707,9.246-11.413,13.869-17.12c7.816-9.648,15.632-19.296,23.448-28.944
			c0.098-0.121,0.197-0.243,0.295-0.364c0.046-0.057-0.054-0.384,0-0.412c-20.38,10.272-40.761,20.545-61.141,30.817
			C101.985,82.533,102.095,82.889,102.043,82.916z"/>
	</g>
</g>
<g>
	<polygon fill="#FFFFFF" points="193.429,171.758 219.743,171.689 195.777,182.555 195.846,208.869 184.981,184.903 
		158.667,184.972 182.632,174.107 182.563,147.793 	"/>
	
		<linearGradient id="SVGID_9_" gradientUnits="userSpaceOnUse" x1="231.9406" y1="85.5667" x2="183.6323" y2="46.4475" gradientTransform="matrix(0.8412 0.5407 -0.5407 0.8412 50.0984 10.4573)">
		<stop  offset="0" style="stop-color:#FFFFFF;stop-opacity:0"/>
		<stop  offset="0.2611" style="stop-color:#0B0B0B;stop-opacity:0.71"/>
		<stop  offset="0.6333" style="stop-color:#FFFFFF;stop-opacity:0"/>
		<stop  offset="0.7148" style="stop-color:#B3B3B3;stop-opacity:0.0866"/>
		<stop  offset="0.7911" style="stop-color:#737373;stop-opacity:0.1678"/>
		<stop  offset="0.8599" style="stop-color:#424242;stop-opacity:0.241"/>
		<stop  offset="0.9199" style="stop-color:#1E1E1E;stop-opacity:0.3048"/>
		<stop  offset="0.9686" style="stop-color:#080808;stop-opacity:0.3566"/>
		<stop  offset="1" style="stop-color:#000000;stop-opacity:0.39"/>
	</linearGradient>
	<polygon fill="url(#SVGID_9_)" points="193.429,171.758 219.743,171.689 195.777,182.555 195.846,208.869 184.981,184.903 
		158.667,184.972 182.632,174.107 182.563,147.793 	"/>
	
		<linearGradient id="SVGID_10_" gradientUnits="userSpaceOnUse" x1="198.0992" y1="92.6227" x2="217.4738" y2="39.3915" gradientTransform="matrix(0.8412 0.5407 -0.5407 0.8412 50.0984 10.4573)">
		<stop  offset="0" style="stop-color:#0049DC;stop-opacity:0.16"/>
		<stop  offset="0.1822" style="stop-color:#024ADC;stop-opacity:0.1004"/>
		<stop  offset="0.2479" style="stop-color:#094FDD;stop-opacity:0.0789"/>
		<stop  offset="0.2947" style="stop-color:#1458DF;stop-opacity:0.0636"/>
		<stop  offset="0.3325" style="stop-color:#2564E1;stop-opacity:0.0512"/>
		<stop  offset="0.3649" style="stop-color:#3B73E4;stop-opacity:0.0406"/>
		<stop  offset="0.3936" style="stop-color:#5787E8;stop-opacity:0.0312"/>
		<stop  offset="0.4196" style="stop-color:#779EEC;stop-opacity:0.0227"/>
		<stop  offset="0.4435" style="stop-color:#9DB9F2;stop-opacity:0.0149"/>
		<stop  offset="0.4657" style="stop-color:#C8D8F7;stop-opacity:0.0076"/>
		<stop  offset="0.4854" style="stop-color:#F6F8FE;stop-opacity:0.0012"/>
		<stop  offset="0.489" style="stop-color:#FFFFFF;stop-opacity:0"/>
		<stop  offset="0.6538" style="stop-color:#FFFFFF;stop-opacity:0.65"/>
		<stop  offset="0.6552" style="stop-color:#FFFFFF;stop-opacity:0.65"/>
		<stop  offset="0.7967" style="stop-color:#FFFFFF;stop-opacity:0.65"/>
		<stop  offset="1" style="stop-color:#FFFFFF;stop-opacity:0.77"/>
	</linearGradient>
	<polygon opacity="0.7" fill="url(#SVGID_10_)" points="193.429,171.758 219.743,171.689 195.777,182.555 195.846,208.869 
		184.981,184.903 158.667,184.972 182.632,174.107 182.563,147.793 	"/>
</g>
<g>
	
		<linearGradient id="SVGID_11_" gradientUnits="userSpaceOnUse" x1="186.2137" y1="65.6562" x2="186.2137" y2="19.6594" gradientTransform="matrix(-0.1569 0.9876 -0.9876 -0.1569 246.706 -59.2945)">
		<stop  offset="0" style="stop-color:#1D59F4"/>
		<stop  offset="0.618" style="stop-color:#2D65EE"/>
		<stop  offset="0.6292" style="stop-color:#3864F3"/>
		<stop  offset="0.9831" style="stop-color:#00DDFC"/>
	</linearGradient>
	<polygon fill="url(#SVGID_11_)" points="183.397,119.198 194.473,144.244 174.091,125.953 149.046,137.029 167.336,116.647 
		156.261,91.602 176.642,109.892 201.688,98.817 	"/>
	
		<linearGradient id="SVGID_12_" gradientUnits="userSpaceOnUse" x1="186.2137" y1="65.6562" x2="186.2137" y2="19.6594" gradientTransform="matrix(-0.1569 0.9876 -0.9876 -0.1569 246.706 -59.2945)">
		<stop  offset="0" style="stop-color:#3862E1;stop-opacity:0.22"/>
		<stop  offset="0.5" style="stop-color:#1846BE"/>
		<stop  offset="0.5137" style="stop-color:#1C52BB;stop-opacity:0.9761"/>
		<stop  offset="0.5687" style="stop-color:#297CB1;stop-opacity:0.8805"/>
		<stop  offset="0.6266" style="stop-color:#34A0A9;stop-opacity:0.7796"/>
		<stop  offset="0.6872" style="stop-color:#3DBDA2;stop-opacity:0.6743"/>
		<stop  offset="0.751" style="stop-color:#44D49D;stop-opacity:0.5632"/>
		<stop  offset="0.8198" style="stop-color:#49E499;stop-opacity:0.4435"/>
		<stop  offset="0.897" style="stop-color:#4CEE97;stop-opacity:0.3092"/>
		<stop  offset="1" style="stop-color:#4DF196;stop-opacity:0.13"/>
	</linearGradient>
	<polygon fill="url(#SVGID_12_)" points="183.397,119.198 194.473,144.244 174.091,125.953 149.046,137.029 167.336,116.647 
		156.261,91.602 176.642,109.892 201.688,98.817 	"/>
	
		<radialGradient id="SVGID_13_" cx="186.2137" cy="42.6578" r="22.9984" gradientTransform="matrix(-0.1569 0.9876 -0.4938 -0.0784 225.6411 -62.6402)" gradientUnits="userSpaceOnUse">
		<stop  offset="0" style="stop-color:#4DF196;stop-opacity:0"/>
		<stop  offset="0.194" style="stop-color:#4BE9A2;stop-opacity:0.1358"/>
		<stop  offset="0.549" style="stop-color:#47D4C4;stop-opacity:0.3843"/>
		<stop  offset="1" style="stop-color:#41B4F6;stop-opacity:0.7"/>
	</radialGradient>
	<polygon opacity="0.51" fill="url(#SVGID_13_)" points="183.397,119.198 194.473,144.244 174.091,125.953 149.046,137.029 
		167.336,116.647 156.261,91.602 176.642,109.892 201.688,98.817 	"/>
	
		<linearGradient id="SVGID_14_" gradientUnits="userSpaceOnUse" x1="186.2137" y1="19.6594" x2="186.2137" y2="65.6562" gradientTransform="matrix(-0.1569 0.9876 -0.9876 -0.1569 246.706 -59.2945)">
		<stop  offset="0" style="stop-color:#FFFFFF;stop-opacity:0.77"/>
		<stop  offset="0.45" style="stop-color:#FFFFFF;stop-opacity:0"/>
		<stop  offset="0.4677" style="stop-color:#DCE2F3;stop-opacity:0.0052"/>
		<stop  offset="0.4921" style="stop-color:#B3C0E4;stop-opacity:0.0122"/>
		<stop  offset="0.5194" style="stop-color:#8DA1D7;stop-opacity:0.0202"/>
		<stop  offset="0.5491" style="stop-color:#6D86CB;stop-opacity:0.0288"/>
		<stop  offset="0.582" style="stop-color:#516FC2;stop-opacity:0.0384"/>
		<stop  offset="0.6192" style="stop-color:#3B5DBA;stop-opacity:0.0492"/>
		<stop  offset="0.6625" style="stop-color:#2A4FB4;stop-opacity:0.0618"/>
		<stop  offset="0.7161" style="stop-color:#1F45B0;stop-opacity:0.0774"/>
		<stop  offset="0.7913" style="stop-color:#1840AE;stop-opacity:0.0993"/>
		<stop  offset="1" style="stop-color:#163EAD;stop-opacity:0.16"/>
	</linearGradient>
	<polygon opacity="0.7" fill="url(#SVGID_14_)" points="183.397,119.198 194.473,144.244 174.091,125.953 149.046,137.029 
		167.336,116.647 156.261,91.602 176.642,109.892 201.688,98.817 	"/>
	<g opacity="0.49">
		<path fill="#FFFFFF" d="M174.214,124.934c-7.534,3.332-15.067,6.663-22.601,9.995c-0.035,0.015-0.169,0.658,0.465-0.049
			c0.611-0.681,1.222-1.361,1.833-2.042c1.975-2.201,3.951-4.402,5.926-6.603c2.757-3.072,5.513-6.143,8.27-9.215
			c0.039-0.044,0.026-0.441,0-0.5c-3.332-7.534-6.663-15.067-9.995-22.601c1.417,3.205,6.534,6.336,9.194,8.723
			c3.072,2.757,6.143,5.513,9.215,8.27c0.592,0.531,9.544-4.221,10.431-4.613c4.057-1.794,8.114-3.588,12.171-5.382
			c0.035-0.015,0.169-0.658-0.465,0.049c-0.611,0.681-1.222,1.361-1.833,2.042c-1.975,2.201-3.951,4.402-5.926,6.603
			c-2.757,3.072-5.513,6.143-8.27,9.215c-0.039,0.044-0.026,0.441,0,0.5c3.332,7.534,6.663,15.067,9.995,22.601
			c-1.417-3.205-6.534-6.336-9.195-8.723C180.357,130.447,177.285,127.691,174.214,124.934c0.081,0.072-0.085,0.424,0,0.5
			c6.143,5.513,12.287,11.026,18.43,16.539c-0.074-0.066,0.045-0.398,0-0.5c-3.332-7.534-6.663-15.067-9.995-22.601
			c0.274,0.619,1.73-1.496,2.323-2.158c1.975-2.201,3.951-4.402,5.926-6.603c2.757-3.072,5.513-6.143,8.27-9.215
			c0.056-0.063-0.063-0.472,0-0.5c-7.549,3.338-15.098,6.677-22.647,10.015c-0.79,0.349-8.421-7.557-9.215-8.27
			c-3.072-2.757-6.143-5.513-9.215-8.27c0.074,0.066-0.045,0.398,0,0.5c3.332,7.534,6.663,15.067,9.995,22.601
			c-0.274-0.619-1.73,1.497-2.323,2.158c-1.975,2.201-3.951,4.402-5.926,6.603c-2.757,3.072-5.513,6.143-8.27,9.215
			c-0.056,0.063,0.063,0.472,0,0.5c7.549-3.338,15.098-6.677,22.647-10.015C174.278,125.406,174.155,124.96,174.214,124.934z"/>
	</g>
	<polygon fill="none" stroke="#3867F6" stroke-width="0.25" stroke-miterlimit="1" points="183.397,119.198 194.473,144.244 
		174.091,125.953 149.046,137.029 167.336,116.647 156.261,91.602 176.642,109.892 201.688,98.817 	"/>
	<g opacity="0.58">
		<path fill="#3A60D1" d="M183.397,119.823c3.692,8.349,7.384,16.697,11.076,25.046c0-0.417,0-0.833,0-1.25
			c-6.794-6.097-13.588-12.194-20.382-18.291c-0.711-0.638-11.444,5.061-12.523,5.538c-4.174,1.846-8.349,3.692-12.523,5.538
			c0,0.417,0,0.833,0,1.25c6.097-6.794,12.194-13.588,18.291-20.382c0.098-0.11,0.065-1.104,0-1.25
			c-3.692-8.349-7.384-16.697-11.076-25.046c0,0.417,0,0.833,0,1.25c6.794,6.097,13.588,12.194,20.382,18.291
			c0.711,0.638,11.444-5.061,12.523-5.538c4.174-1.846,8.349-3.692,12.523-5.538c0-0.417,0-0.833,0-1.25
			c-6.097,6.794-12.194,13.588-18.291,20.382C183.186,118.809,183.6,119.597,183.397,119.823
			c6.097-6.794,12.194-13.588,18.291-20.382c0.141-0.157-0.156-1.181,0-1.25c-8.349,3.692-16.697,7.384-25.046,11.076
			c-0.874,0.386-9.313-8.358-10.191-9.145c-3.397-3.048-6.794-6.097-10.191-9.145c0.185,0.166-0.112,0.996,0,1.25
			c3.692,8.349,7.384,16.697,11.076,25.046c0-0.417,0-0.833,0-1.25c-6.097,6.794-12.194,13.588-18.291,20.382
			c-0.141,0.157,0.156,1.181,0,1.25c8.349-3.692,16.697-7.384,25.046-11.076c0.873-0.386,9.313,8.358,10.191,9.145
			c3.397,3.048,6.794,6.097,10.191,9.145c-0.185-0.166,0.112-0.996,0-1.25c-3.692-8.349-7.384-16.697-11.076-25.046
			C183.55,118.918,183.242,119.471,183.397,119.823z"/>
	</g>
</g>
</svg>
